#!OML:ASF F:\VICON\USERDATA\INSTALL\rory3\rory3.ASF
:FULLY-SPECIFIED
:DEGREES
164
root 4.63995 17.5957 1.38347 16.6352 1.87385 -2.42527
lowerback -6.21812 0.475839 13.2667
upperback -10.7976 0.554289 0.976701
thorax -8.11365 -0.73712 -6.35115
lowerneck -4.10808 13.3067 7.58719
upperneck 20.4317 16.373 6.11627
head 7.09133 8.94716 1.99642
rclavicle -7.7526e-015 1.19271e-014
rhumerus 5.4004 -24.8939 16.2524
rradius 116.323
rwrist -65.8823
rhand -1.45025 -44.2379
rfingers 7.12502
rthumb 24.2006 -72.7309
lclavicle -7.7526e-015 1.19271e-014
lhumerus 36.3073 33.2241 -6.69406
lradius 33.0508
lwrist 32.5149
lhand -25.452 -21.2339
lfingers 7.12502
lthumb 1.07503 8.7431
rfemur -9.71267 7.80258 -1.72356
rtibia 23.8099
rfoot 19.7615 -16.0742
rtoes -19.5079
lfemur -18.5518 1.50719 -28.0122
ltibia 16.8454
lfoot -14.008 6.97208
ltoes 13.5917
165
root 4.64439 17.5908 1.38695 16.6135 1.90723 -2.47437
lowerback -6.45927 0.510139 13.4642
upperback -10.7983 0.555159 0.918317
thorax -7.98452 -0.747357 -6.52373
lowerneck -4.54384 13.2108 7.06617
upperneck 21.3612 16.091 6.90681
head 7.35397 8.86436 2.36426
rclavicle 7.85199e-015 -1.59028e-014
rhumerus 5.41235 -24.6763 15.9898
rradius 116.37
rwrist -65.9662
rhand -1.62992 -44.2353
rfingers 7.12502
rthumb 24.0283 -72.7512
lclavicle 7.85199e-015 -1.59028e-014
lhumerus 36.1497 32.7695 -6.99504
lradius 33.3211
lwrist 32.9267
lhand -26.2697 -21.108
lfingers 7.12502
lthumb 0.285238 8.87157
rfemur -9.67411 7.54186 -1.66658
rtibia 23.9226
rfoot 19.0666 -16.5797
rtoes -18.0632
lfemur -18.5611 1.62745 -28.0088
ltibia 16.9786
lfoot -14.1098 6.88441
ltoes 13.5977
166
root 4.6389 17.5852 1.36414 16.6124 1.95328 -2.47201
lowerback -6.29554 0.472109 13.4875
upperback -10.8622 0.536158 0.909911
thorax -8.15826 -0.773206 -6.54555
lowerneck -4.42938 13.068 6.94528
upperneck 21.7354 15.8853 7.03527
head 7.436 8.77661 2.41436
rclavicle 5.66536e-015 -1.74931e-014
rhumerus 5.37399 -24.3897 15.7807
rradius 116.466
rwrist -65.8206
rhand -1.82544 -44.237
rfingers 7.12502
rthumb 23.8408 -72.7775
lclavicle 5.66536e-015 -1.74931e-014
lhumerus 36.0804 32.4439 -7.11113
lradius 33.5212
lwrist 33.1574
lhand -27.9697 -20.9991
lfingers 7.12502
lthumb -1.3566 8.97633
rfemur -9.7666 7.3946 -1.63478
rtibia 24.0275
rfoot 18.2423 -17.5295
rtoes -15.7197
lfemur -18.6857 1.66457 -28.0176
ltibia 17.1273
lfoot -14.0858 6.9194
ltoes 12.6016
167
root 4.64051 17.5799 1.35173 16.5701 2.05416 -2.5327
lowerback -6.18113 0.425531 13.631
upperback -10.891 0.49557 0.936166
thorax -8.27395 -0.812264 -6.59607
lowerneck -4.26777 12.9315 6.92865
upperneck 22.0509 15.7272 6.93188
head 7.52036 8.6973 2.37792
rclavicle -6.75868e-015 -1.90833e-014
rhumerus 5.43829 -24.0569 15.6058
rradius 116.488
rwrist -65.4199
rhand -2.17918 -43.6878
rfingers 7.12502
rthumb 23.5015 -72.2722
lclavicle -6.75868e-015 -1.90833e-014
lhumerus 35.9805 32.2141 -7.18262
lradius 33.7366
lwrist 33.3515
lhand -28.4247 -20.9454
lfingers 7.12502
lthumb -1.79606 9.02683
rfemur -9.7819 7.05754 -1.5193
rtibia 24.2111
rfoot 17.8747 -17.7957
rtoes -14.579
lfemur -18.701 1.67295 -27.9744
ltibia 17.2394
lfoot -14.1173 6.94388
ltoes 11.3789
168
root 4.64182 17.582 1.34149 16.5352 2.0712 -2.57017
lowerback -6.08557 0.386279 13.6776
upperback -10.8102 0.453485 0.97418
thorax -8.24759 -0.829392 -6.581
lowerneck -4.6287 12.8041 6.83602
upperneck 22.5288 15.5249 6.89741
head 7.73739 8.60053 2.4191
rclavicle 1.48095e-014 -1.66979e-014
rhumerus 5.59575 -23.9859 15.3752
rradius 116.392
rwrist -65.2278
rhand -2.61435 -43.1341
rfingers 7.12502
rthumb 23.084 -71.7714
lclavicle 1.48095e-014 -1.66979e-014
lhumerus 35.774 32.1729 -7.36639
lradius 33.9607
lwrist 33.4215
lhand -27.2424 -20.9356
lfingers 7.12502
lthumb -0.654228 9.04319
rfemur -9.94051 6.75603 -1.43249
rtibia 24.5273
rfoot 18.5404 -16.8567
rtoes -16.7105
lfemur -18.7363 1.68555 -27.9401
ltibia 17.3289
lfoot -14.1694 6.86625
ltoes 11.5534
169
root 4.63302 17.5845 1.31504 16.5304 1.9869 -2.40103
lowerback -5.95836 0.348932 13.3924
upperback -10.5932 0.405691 0.938676
thorax -8.06749 -0.810696 -6.4639
lowerneck -5.01963 12.6319 6.78949
upperneck 22.6018 15.2963 6.68029
head 7.84411 8.46831 2.37354
rclavicle -1.19271e-015 -2.62396e-014
rhumerus 5.65105 -24.3575 15.0348
rradius 116.24
rwrist -65.1934
rhand -2.81805 -43.2626
rfingers 7.12502
rthumb 22.8886 -71.9241
lclavicle -1.19271e-015 -2.62396e-014
lhumerus 35.6915 32.5283 -7.49968
lradius 34.072
lwrist 33.2722
lhand -25.632 -21.156
lfingers 7.12502
lthumb 0.901159 8.82181
rfemur -10.2595 6.65307 -1.58461
rtibia 24.8294
rfoot 19.2039 -16.1523
rtoes -18.7282
lfemur -18.855 1.70321 -28.1065
ltibia 17.4373
lfoot -14.1488 6.80154
ltoes 11.9663
170
root 4.62204 17.5839 1.28566 16.4814 1.91472 -2.30668
lowerback -5.86779 0.325863 13.2292
upperback -10.3455 0.366315 0.883385
thorax -7.83641 -0.794456 -6.43621
lowerneck -5.25431 12.4564 6.83768
upperneck 22.5166 15.1041 6.29434
head 7.89248 8.34159 2.24441
rclavicle 9.93923e-017 -3.4191e-014
rhumerus 5.66941 -24.8315 14.6191
rradius 116.09
rwrist -65.1797
rhand -2.79519 -43.6288
rfingers 7.12502
rthumb 22.9105 -72.2877
lclavicle 9.93923e-017 -3.4191e-014
lhumerus 35.7595 33.0661 -7.49889
lradius 34.1255
lwrist 33.1529
lhand -25.3745 -21.3062
lfingers 7.12502
lthumb 1.14983 8.67045
rfemur -10.4429 6.64726 -1.6331
rtibia 25.0343
rfoot 19.0647 -16.5418
rtoes -18.055
lfemur -19.0184 1.69094 -28.1791
ltibia 17.6314
lfoot -14.0794 6.8452
ltoes 12.0122
171
root 4.61281 17.5828 1.27142 16.4084 1.85219 -2.3691
lowerback -5.9004 0.333909 13.2429
upperback -10.1721 0.356485 0.880735
thorax -7.62204 -0.77912 -6.44855
lowerneck -5.68374 12.3186 6.77455
upperneck 22.9553 14.8946 6.20179
head 8.11775 8.23529 2.26271
rclavicle -6.85807e-015 7.95139e-016
rhumerus 5.66926 -25.0449 14.3445
rradius 116.015
rwrist -65.3901
rhand -2.88982 -43.8465
rfingers 7.12502
rthumb 22.8197 -72.5166
lclavicle -6.85807e-015 7.95139e-016
lhumerus 35.8339 33.3561 -7.4275
lradius 34.2858
lwrist 33.4821
lhand -25.5341 -21.1532
lfingers 7.12502
lthumb 0.995721 8.82419
rfemur -10.4441 6.67836 -1.48751
rtibia 25.1253
rfoot 18.4447 -17.3112
rtoes -15.9966
lfemur -19.2 1.69774 -28.081
ltibia 17.8961
lfoot -14.0447 6.96314
ltoes 11.7586
172
root 4.61362 17.5874 1.26729 16.3476 1.91092 -2.43381
lowerback -5.9713 0.33226 13.383
upperback -10.1235 0.336298 0.862631
thorax -7.53699 -0.792857 -6.54645
lowerneck -5.97573 12.1711 6.57662
upperneck 23.6339 14.6346 6.41813
head 8.36507 8.12853 2.39337
rclavicle -2.98177e-016 1.82882e-014
rhumerus 5.67152 -24.8805 14.1438
rradius 115.974
rwrist -65.4159
rhand -3.13344 -43.6924
rfingers 7.12502
rthumb 22.5859 -72.3911
lclavicle -2.98177e-016 1.82882e-014
lhumerus 35.6806 33.1042 -7.68417
lradius 34.6121
lwrist 34.337
lhand -24.8021 -21.0732
lfingers 7.12502
lthumb 1.70271 8.8998
rfemur -10.3363 6.51951 -1.3447
rtibia 25.1374
rfoot 17.8314 -17.9547
rtoes -14.0963
lfemur -19.3044 1.56357 -27.952
ltibia 18.1445
lfoot -14.2035 6.90615
ltoes 13.1148
173
root 4.61996 17.5902 1.25969 16.2909 2.05014 -2.51863
lowerback -5.949 0.308073 13.6275
upperback -10.1695 0.308374 0.846666
thorax -7.62074 -0.833264 -6.69908
lowerneck -5.80233 12.0072 6.42405
upperneck 23.999 14.4102 6.54234
head 8.43548 8.02866 2.43969
rclavicle 1.03368e-014 -1.51076e-014
rhumerus 5.74533 -24.575 13.9061
rradius 115.953
rwrist -65.199
rhand -3.08102 -43.5387
rfingers 7.12502
rthumb 22.6362 -72.2313
lclavicle 1.03368e-014 -1.51076e-014
lhumerus 35.7088 32.7929 -7.65283
lradius 34.7972
lwrist 34.5454
lhand -24.1879 -21.1992
lfingers 7.12502
lthumb 2.29585 8.76816
rfemur -10.1935 6.20793 -1.1982
rtibia 25.1083
rfoot 16.7515 -19.0112
rtoes -10.7947
lfemur -19.3505 1.42539 -27.8225
ltibia 18.3642
lfoot -14.3782 6.76417
ltoes 14.6702
174
root 4.61773 17.5821 1.24543 16.3118 2.08461 -2.61749
lowerback -5.93973 0.285352 13.7599
upperback -10.2247 0.284919 0.886047
thorax -7.70091 -0.86085 -6.72873
lowerneck -5.53968 11.8309 6.35096
upperneck 24.2059 14.2125 6.4559
head 8.45973 7.92426 2.39599
rclavicle 1.38155e-014 -1.19271e-014
rhumerus 5.84168 -24.4356 13.6931
rradius 116.062
rwrist -65.422
rhand -2.72331 -43.685
rfingers 7.12502
rthumb 22.9795 -72.3353
lclavicle 1.38155e-014 -1.19271e-014
lhumerus 36.0301 32.8046 -7.08041
lradius 34.7982
lwrist 34.0599
lhand -23.9677 -21.2743
lfingers 7.12502
lthumb 2.50851 8.69066
rfemur -10.2014 6.05017 -1.06453
rtibia 25.0586
rfoot 15.8201 -19.7932
rtoes -7.96392
lfemur -19.5365 1.55365 -27.7661
ltibia 18.593
lfoot -14.3302 6.82976
ltoes 13.2918
175
root 4.61249 17.5762 1.23257 16.3226 2.07096 -2.64968
lowerback -5.95099 0.248016 13.7755
upperback -10.2244 0.234398 0.919617
thorax -7.7061 -0.885942 -6.70028
lowerneck -5.54474 11.7014 6.19846
upperneck 24.5687 14.0347 6.50727
head 8.56796 7.83815 2.4374
rclavicle -4.87022e-015 -6.36111e-015
rhumerus 5.99642 -24.3204 13.3886
rradius 116.108
rwrist -65.6437
rhand -2.57251 -43.6438
rfingers 7.12502
rthumb 23.1242 -72.276
lclavicle -4.87022e-015 -6.36111e-015
lhumerus 36.0146 32.7345 -6.97636
lradius 34.971
lwrist 34.0805
lhand -24.7198 -21.1381
lfingers 7.12502
lthumb 1.78217 8.8342
rfemur -10.2806 6.00415 -0.997213
rtibia 25.0799
rfoot 15.9976 -19.6738
rtoes -8.45538
lfemur -19.6661 1.6039 -27.7569
ltibia 18.7558
lfoot -14.3004 7.01057
ltoes 11.8096
